<?xml version="1.0" encoding="UTF-8"?>
<svg id="Camada_1" data-name="Camada 1" xmlns="http://www.w3.org/2000/svg" viewBox="0 0 1632.75 467.08">
  <defs>
    <style>
      .cls-1 {
        fill: #fff;
      }
    </style>
  </defs>
  <g>
    <path class="cls-1" d="M652.82,371.4c-.71-13.39-1.57-29.49-1.42-41.46h-.43c-3.28,11.26-7.27,23.22-12.11,36.48l-16.96,46.59h-9.4l-15.53-45.74c-4.56-13.54-8.41-25.93-11.11-37.33h-.29c-.29,11.97-1,28.07-1.85,42.46l-2.56,41.18h-11.83l6.7-96.04h15.82l16.39,46.45c3.99,11.83,7.27,22.37,9.69,32.34h.43c2.42-9.69,5.84-20.23,10.12-32.34l17.1-46.45h15.82l5.98,96.04h-12.11l-2.42-42.18Z"/>
    <path class="cls-1" d="M784.75,378.52c0,25.5-17.67,36.62-34.34,36.62-18.67,0-33.06-13.68-33.06-35.48,0-23.08,15.1-36.62,34.2-36.62s33.2,14.39,33.2,35.48ZM730.03,379.24c0,15.1,8.69,26.5,20.95,26.5s20.95-11.26,20.95-26.79c0-11.69-5.84-26.5-20.66-26.5s-21.23,13.68-21.23,26.79Z"/>
    <path class="cls-1" d="M838.66,413.57c.28-4.7.57-11.68.57-17.81v-83.35h12.4v43.31h.29c4.42-7.69,12.4-12.68,23.51-12.68,17.1,0,29.21,14.25,29.07,35.2,0,24.65-15.53,36.9-30.92,36.9-9.97,0-17.95-3.85-23.08-12.97h-.43l-.57,11.4h-10.83ZM851.63,385.93c0,1.57.29,3.13.57,4.56,2.42,8.69,9.69,14.68,18.81,14.68,13.11,0,20.95-10.69,20.95-26.5,0-13.82-7.12-25.65-20.52-25.65-8.55,0-16.53,5.84-19.09,15.39-.29,1.43-.71,3.13-.71,5.13v12.4Z"/>
    <path class="cls-1" d="M970.38,325.23c.14,4.28-2.99,7.7-7.98,7.7-4.42,0-7.55-3.42-7.55-7.7s3.28-7.84,7.84-7.84,7.69,3.42,7.69,7.84ZM956.42,413.57v-68.96h12.54v68.96h-12.54Z"/>
    <path class="cls-1" d="M1027.75,312.41h12.54v101.16h-12.54v-101.16Z"/>
    <path class="cls-1" d="M1113.17,325.23c.14,4.28-2.99,7.7-7.98,7.7-4.42,0-7.55-3.42-7.55-7.7s3.28-7.84,7.84-7.84,7.69,3.42,7.69,7.84ZM1099.2,413.57v-68.96h12.54v68.96h-12.54Z"/>
    <path class="cls-1" d="M1228.07,312.41v83.35c0,6.13.14,13.11.57,17.81h-11.26l-.57-11.97h-.28c-3.85,7.7-12.25,13.54-23.51,13.54-16.67,0-29.5-14.11-29.5-35.05-.14-22.94,14.11-37.05,30.92-37.05,10.54,0,17.67,4.99,20.8,10.54h.29v-41.18h12.54ZM1215.53,372.68c0-1.57-.14-3.71-.57-5.27-1.85-7.98-8.69-14.53-18.1-14.53-12.97,0-20.66,11.4-20.66,26.64,0,13.96,6.84,25.51,20.38,25.51,8.41,0,16.1-5.56,18.38-14.96.43-1.71.57-3.42.57-5.41v-11.97Z"/>
    <path class="cls-1" d="M1325.65,413.57l-1-8.69h-.43c-3.85,5.41-11.26,10.26-21.09,10.26-13.96,0-21.09-9.83-21.09-19.81,0-16.67,14.82-25.79,41.46-25.65v-1.43c0-5.7-1.57-15.96-15.67-15.96-6.41,0-13.11,2-17.95,5.13l-2.85-8.27c5.7-3.7,13.96-6.13,22.66-6.13,21.09,0,26.22,14.39,26.22,28.21v25.79c0,5.98.29,11.83,1.14,16.53h-11.4ZM1323.8,378.38c-13.68-.29-29.21,2.14-29.21,15.53,0,8.12,5.42,11.97,11.83,11.97,8.98,0,14.68-5.7,16.67-11.54.43-1.28.71-2.71.71-3.99v-11.97Z"/>
    <path class="cls-1" d="M1454.4,312.41v83.35c0,6.13.14,13.11.57,17.81h-11.26l-.57-11.97h-.28c-3.85,7.7-12.25,13.54-23.51,13.54-16.67,0-29.5-14.11-29.5-35.05-.14-22.94,14.11-37.05,30.92-37.05,10.54,0,17.67,4.99,20.8,10.54h.29v-41.18h12.54ZM1441.86,372.68c0-1.57-.14-3.71-.57-5.27-1.85-7.98-8.69-14.53-18.1-14.53-12.97,0-20.66,11.4-20.66,26.64,0,13.96,6.84,25.51,20.38,25.51,8.41,0,16.1-5.56,18.38-14.96.43-1.71.57-3.42.57-5.41v-11.97Z"/>
    <path class="cls-1" d="M1520.85,381.37c.28,16.96,11.11,23.94,23.65,23.94,8.98,0,14.39-1.57,19.09-3.56l2.14,8.98c-4.42,2-11.97,4.28-22.94,4.28-21.23,0-33.91-13.96-33.91-34.77s12.25-37.19,32.34-37.19c22.51,0,28.5,19.81,28.5,32.49,0,2.56-.28,4.56-.43,5.84h-48.45ZM1557.61,372.4c.14-7.98-3.28-20.38-17.38-20.38-12.68,0-18.24,11.68-19.24,20.38h36.62Z"/>
  </g>
  <g>
    <path class="cls-1" d="M775.98,245.76h-32.69v-106.57l-57.53,101.2c-1.42,2.58-3.39,4.54-5.93,5.87-2.54,1.33-5.26,2-8.17,2s-5.47-.67-7.92-2c-2.46-1.33-4.39-3.29-5.8-5.87l-57.78-101.2v106.57h-32.44V80.67c0-3.74,1.1-7.07,3.31-9.98,2.2-2.91,5.09-4.87,8.67-5.87,1.75-.42,3.49-.56,5.24-.44,1.75.12,3.43.5,5.05,1.12,1.62.62,3.1,1.5,4.43,2.62,1.33,1.12,2.45,2.48,3.37,4.06l73.87,128.4,73.87-128.4c1.91-3.16,4.55-5.41,7.92-6.74,3.37-1.33,6.88-1.54,10.54-.62,3.49,1,6.36,2.96,8.61,5.87,2.25,2.91,3.37,6.24,3.37,9.98v165.09Z"/>
    <path class="cls-1" d="M949.3,201.09c0,4.49-.79,9.34-2.37,14.54-1.58,5.2-4.14,10.03-7.67,14.47-3.54,4.45-8.15,8.17-13.85,11.17-5.7,3-12.62,4.49-20.78,4.49h-58.52c-4.49,0-9.34-.79-14.54-2.37-5.2-1.58-10.03-4.14-14.47-7.67-4.45-3.54-8.17-8.15-11.17-13.85-2.99-5.7-4.49-12.62-4.49-20.78,0-4.49.79-9.36,2.37-14.6,1.58-5.24,4.14-10.09,7.67-14.54,3.53-4.45,8.15-8.17,13.85-11.17,5.7-2.99,12.62-4.49,20.78-4.49h58.52v30.95h-58.52c-4.41,0-7.82,1.35-10.23,4.05-2.41,2.71-3.62,6.05-3.62,10.04,0,4.24,1.39,7.55,4.18,9.92,2.79,2.37,6.09,3.56,9.92,3.56h58.27c4.41,0,7.82-1.33,10.23-3.99,2.41-2.66,3.62-5.99,3.62-9.98v-45.3c0-4.24-1.31-7.61-3.93-10.11-2.62-2.5-5.93-3.74-9.92-3.74h-71.25v-30.82h71.25c4.49,0,9.34.79,14.54,2.37,5.2,1.58,10.02,4.14,14.48,7.68,4.45,3.54,8.17,8.15,11.17,13.85,3,5.7,4.49,12.62,4.49,20.78v45.55Z"/>
    <path class="cls-1" d="M1095.05,143.31h-73c-4.41,0-7.74,1.1-9.98,3.31-2.25,2.21-3.37,5.43-3.37,9.67v89.47h-32.44v-89.47c0-5.57.71-10.56,2.12-14.97,1.41-4.41,3.31-8.3,5.68-11.67,2.37-3.37,5.09-6.24,8.17-8.61,3.08-2.37,6.3-4.3,9.67-5.8,3.37-1.5,6.78-2.6,10.23-3.31,3.45-.71,6.68-1.06,9.67-1.06h73.25v32.45Z"/>
    <path class="cls-1" d="M1239.05,143.31h-56.65v102.45h-32.82v-102.45h-42.18v-32.45h42.18v-44.05h32.82v44.05h56.65v32.45Z"/>
    <path class="cls-1" d="M1293.33,83.17h-32.44v-29.32h32.44v29.32ZM1293.33,245.76h-32.44V110.87h32.44v134.89Z"/>
    <path class="cls-1" d="M1473.9,245.76h-32.44v-74.87c0-4.24-.73-8.05-2.18-11.42-1.46-3.37-3.43-6.26-5.93-8.67-2.5-2.41-5.43-4.26-8.8-5.55-3.37-1.29-7.01-1.93-10.92-1.93h-56.78v102.45h-32.44v-118.79c0-2.25.42-4.35,1.25-6.3.83-1.95,2-3.66,3.49-5.12,1.5-1.45,3.24-2.6,5.24-3.43,2-.83,4.12-1.25,6.36-1.25h73.12c4.08,0,8.38.46,12.92,1.37,4.53.92,9.03,2.39,13.48,4.43,4.45,2.04,8.69,4.62,12.73,7.74,4.03,3.12,7.61,6.91,10.73,11.36,3.12,4.45,5.59,9.59,7.42,15.41,1.83,5.82,2.75,12.4,2.75,19.71v74.87Z"/>
    <path class="cls-1" d="M1632.75,200.21c0,5.58-.71,10.59-2.12,15.04-1.42,4.45-3.29,8.36-5.62,11.73-2.33,3.37-5.03,6.24-8.11,8.61-3.08,2.37-6.3,4.3-9.67,5.8s-6.78,2.6-10.23,3.31c-3.45.71-6.72,1.06-9.8,1.06h-87.85v-32.44h87.6c4.41,0,7.74-1.12,9.98-3.37s3.37-5.49,3.37-9.73c-.42-8.65-4.79-12.98-13.1-12.98h-50.29c-7.16,0-13.23-1.25-18.22-3.74s-9.05-5.62-12.17-9.36c-3.12-3.74-5.37-7.78-6.74-12.11-1.37-4.32-2.06-8.36-2.06-12.1,0-7.24,1.29-13.33,3.87-18.28,2.58-4.95,5.82-8.96,9.73-12.04,3.91-3.08,8.15-5.3,12.73-6.68,4.57-1.37,8.86-2.06,12.85-2.06h79.74v32.45h-79.49c-1.67,0-2.98.19-3.93.56-.96.38-1.67.87-2.12,1.5-.46.62-.73,1.29-.81,2-.08.71-.12,1.39-.12,2.06.08,1.33.33,2.37.75,3.12.42.75.94,1.29,1.56,1.62.62.33,1.33.52,2.12.56.79.04,1.56.06,2.31.06h50.29c8.32,0,15.39,1.5,21.21,4.49,5.82,2.99,10.52,6.76,14.1,11.29,3.58,4.54,6.18,9.46,7.8,14.79s2.43,10.28,2.43,14.85Z"/>
  </g>
  <path class="cls-1" d="M336.36,0h-205.64C58.82,0,0,58.82,0,130.72v205.64c0,71.9,58.82,130.72,130.72,130.72h205.64c71.9,0,130.72-58.82,130.72-130.72v-205.64C467.08,58.82,408.26,0,336.36,0ZM58.19,326.84c-11.87-11.87-11.87-31.17,0-43.04l141.39-141.39c11.87-11.87,31.17-11.86,43.04,0l.26.26c11.87,11.87,11.87,31.17,0,43.04l-141.39,141.39c-11.87,11.87-31.17,11.87-43.04,0l-.26-.26ZM243.58,186.43c5.52-5.52,8.55-12.61,9.09-19.84v62.82l-53.7,53.7c-4.51,4.51-7.35,10.05-8.54,15.88v-59.4l53.14-53.14ZM242.99,327.1c-11.87,11.87-31.17,11.87-43.04,0l-.26-.26c-11.86-11.87-11.86-31.17,0-43.04l141.39-141.39c11.87-11.87,31.17-11.86,43.04,0l.26.26c11.87,11.87,11.87,31.17,0,43.04l-141.39,141.39ZM362.77,336.39h-.37c-17.08,0-30.93-13.85-30.93-30.93v-65.41l53.62-53.62c4.6-4.6,7.47-10.28,8.62-16.23v135.26c0,17.08-13.85,30.93-30.93,30.93Z"/>
</svg>